<mxfile host="app.diagrams.net" modified="2024-04-17T11:44:12.270Z" agent="Mozilla/5.0 (Windows NT 10.0; Win64; x64) AppleWebKit/537.36 (KHTML, like Gecko) Chrome/123.0.0.0 Safari/537.36" etag="rgkmx1uejjED112Go8Q1" version="24.2.5" type="github">
  <diagram name="Page-1" id="V60g2Nc0MobOdBnF-WPT">
    <mxGraphModel dx="1723" dy="738" grid="1" gridSize="10" guides="1" tooltips="1" connect="1" arrows="1" fold="1" page="1" pageScale="1" pageWidth="850" pageHeight="1100" math="0" shadow="0">
      <root>
        <mxCell id="0" />
        <mxCell id="1" parent="0" />
        <mxCell id="dyP7tvdcnq1FMwtRlL3u-1" value="Geschäftsführer" style="shape=umlActor;verticalLabelPosition=bottom;verticalAlign=top;html=1;outlineConnect=0;" vertex="1" parent="1">
          <mxGeometry x="80" y="190" width="30" height="60" as="geometry" />
        </mxCell>
        <mxCell id="dyP7tvdcnq1FMwtRlL3u-3" value="G" style="swimlane;startSize=0;" vertex="1" parent="1">
          <mxGeometry x="160" y="50" width="560" height="750" as="geometry" />
        </mxCell>
        <mxCell id="dyP7tvdcnq1FMwtRlL3u-4" value="Baufirma" style="text;html=1;align=center;verticalAlign=middle;whiteSpace=wrap;rounded=0;" vertex="1" parent="dyP7tvdcnq1FMwtRlL3u-3">
          <mxGeometry x="250" width="60" height="30" as="geometry" />
        </mxCell>
        <mxCell id="dyP7tvdcnq1FMwtRlL3u-5" value="Mitarbeiterdaten pflegen" style="ellipse;whiteSpace=wrap;html=1;" vertex="1" parent="dyP7tvdcnq1FMwtRlL3u-3">
          <mxGeometry x="200" y="70" width="150" height="60" as="geometry" />
        </mxCell>
        <mxCell id="dyP7tvdcnq1FMwtRlL3u-7" value="Kundendaten pflegen" style="ellipse;whiteSpace=wrap;html=1;" vertex="1" parent="dyP7tvdcnq1FMwtRlL3u-3">
          <mxGeometry x="70" y="160" width="150" height="60" as="geometry" />
        </mxCell>
        <mxCell id="dyP7tvdcnq1FMwtRlL3u-8" value="Basisauftragsdaten anlegen" style="ellipse;whiteSpace=wrap;html=1;" vertex="1" parent="dyP7tvdcnq1FMwtRlL3u-3">
          <mxGeometry x="100" y="310" width="150" height="60" as="geometry" />
        </mxCell>
        <mxCell id="dyP7tvdcnq1FMwtRlL3u-9" value="Basisauftragsdaten ergänzen" style="ellipse;whiteSpace=wrap;html=1;" vertex="1" parent="dyP7tvdcnq1FMwtRlL3u-3">
          <mxGeometry x="320" y="630" width="150" height="55" as="geometry" />
        </mxCell>
        <mxCell id="dyP7tvdcnq1FMwtRlL3u-10" value="Auftragsübersicht anzeigen&lt;br&gt;&lt;br&gt;&amp;lt;&amp;lt;Erweiterungspunkte&amp;gt;&amp;gt;&lt;br&gt;Auswahl eines einzelnen Auftrags mölich" style="ellipse;whiteSpace=wrap;html=1;" vertex="1" parent="dyP7tvdcnq1FMwtRlL3u-3">
          <mxGeometry x="50" y="450" width="300" height="100" as="geometry" />
        </mxCell>
        <mxCell id="dyP7tvdcnq1FMwtRlL3u-12" value="Adresse ändern" style="ellipse;whiteSpace=wrap;html=1;" vertex="1" parent="dyP7tvdcnq1FMwtRlL3u-3">
          <mxGeometry x="340" y="264" width="150" height="60" as="geometry" />
        </mxCell>
        <mxCell id="dyP7tvdcnq1FMwtRlL3u-26" value="" style="endArrow=none;dashed=1;html=1;rounded=0;exitX=0.5;exitY=0;exitDx=0;exitDy=0;entryX=0.5;entryY=1;entryDx=0;entryDy=0;" edge="1" parent="dyP7tvdcnq1FMwtRlL3u-3" source="dyP7tvdcnq1FMwtRlL3u-8" target="dyP7tvdcnq1FMwtRlL3u-7">
          <mxGeometry width="50" height="50" relative="1" as="geometry">
            <mxPoint x="235" y="550" as="sourcePoint" />
            <mxPoint x="155" y="480" as="targetPoint" />
          </mxGeometry>
        </mxCell>
        <mxCell id="dyP7tvdcnq1FMwtRlL3u-27" value="&amp;lt;&amp;lt; extend &amp;gt;&amp;gt;&lt;br&gt;Bedingung: Büroangestellte klickt auf Basisauftrag anlegen" style="text;html=1;align=center;verticalAlign=middle;whiteSpace=wrap;rounded=0;" vertex="1" parent="dyP7tvdcnq1FMwtRlL3u-3">
          <mxGeometry x="50" y="250" width="170" height="30" as="geometry" />
        </mxCell>
        <mxCell id="dyP7tvdcnq1FMwtRlL3u-30" value="" style="endArrow=none;dashed=1;html=1;rounded=0;exitX=1.02;exitY=0.65;exitDx=0;exitDy=0;exitPerimeter=0;entryX=0.5;entryY=0;entryDx=0;entryDy=0;" edge="1" parent="dyP7tvdcnq1FMwtRlL3u-3" source="dyP7tvdcnq1FMwtRlL3u-7" target="dyP7tvdcnq1FMwtRlL3u-12">
          <mxGeometry width="50" height="50" relative="1" as="geometry">
            <mxPoint x="640" y="430" as="sourcePoint" />
            <mxPoint x="690" y="380" as="targetPoint" />
          </mxGeometry>
        </mxCell>
        <mxCell id="dyP7tvdcnq1FMwtRlL3u-31" value="" style="endArrow=none;dashed=1;html=1;rounded=0;exitX=1;exitY=0.5;exitDx=0;exitDy=0;entryX=0;entryY=0.5;entryDx=0;entryDy=0;" edge="1" parent="dyP7tvdcnq1FMwtRlL3u-3" source="dyP7tvdcnq1FMwtRlL3u-8" target="dyP7tvdcnq1FMwtRlL3u-12">
          <mxGeometry width="50" height="50" relative="1" as="geometry">
            <mxPoint x="233" y="209" as="sourcePoint" />
            <mxPoint x="425" y="274" as="targetPoint" />
          </mxGeometry>
        </mxCell>
        <mxCell id="dyP7tvdcnq1FMwtRlL3u-32" value="Basisauftragsdaten ändern" style="ellipse;whiteSpace=wrap;html=1;" vertex="1" parent="dyP7tvdcnq1FMwtRlL3u-3">
          <mxGeometry x="400" y="480" width="150" height="55" as="geometry" />
        </mxCell>
        <mxCell id="dyP7tvdcnq1FMwtRlL3u-33" value="" style="endArrow=none;dashed=1;html=1;rounded=0;exitX=0;exitY=0.5;exitDx=0;exitDy=0;entryX=1;entryY=0;entryDx=0;entryDy=0;" edge="1" parent="dyP7tvdcnq1FMwtRlL3u-3" source="dyP7tvdcnq1FMwtRlL3u-32" target="dyP7tvdcnq1FMwtRlL3u-10">
          <mxGeometry width="50" height="50" relative="1" as="geometry">
            <mxPoint x="400" y="588" as="sourcePoint" />
            <mxPoint x="230" y="520" as="targetPoint" />
          </mxGeometry>
        </mxCell>
        <mxCell id="dyP7tvdcnq1FMwtRlL3u-36" style="edgeStyle=orthogonalEdgeStyle;rounded=0;orthogonalLoop=1;jettySize=auto;html=1;exitX=0.5;exitY=1;exitDx=0;exitDy=0;" edge="1" parent="dyP7tvdcnq1FMwtRlL3u-3" source="dyP7tvdcnq1FMwtRlL3u-34">
          <mxGeometry relative="1" as="geometry">
            <mxPoint x="370" y="460" as="targetPoint" />
          </mxGeometry>
        </mxCell>
        <mxCell id="dyP7tvdcnq1FMwtRlL3u-34" value="&amp;lt;&amp;lt; extend &amp;gt;&amp;gt;&lt;br&gt;Bedingung: Büroangestellte klickt auf Ändern" style="text;html=1;align=center;verticalAlign=middle;whiteSpace=wrap;rounded=0;" vertex="1" parent="dyP7tvdcnq1FMwtRlL3u-3">
          <mxGeometry x="290" y="440" width="170" height="30" as="geometry" />
        </mxCell>
        <mxCell id="dyP7tvdcnq1FMwtRlL3u-35" value="" style="endArrow=none;dashed=1;html=1;rounded=0;exitX=0;exitY=0.5;exitDx=0;exitDy=0;entryX=0.5;entryY=1;entryDx=0;entryDy=0;" edge="1" parent="dyP7tvdcnq1FMwtRlL3u-3" source="dyP7tvdcnq1FMwtRlL3u-9" target="dyP7tvdcnq1FMwtRlL3u-10">
          <mxGeometry width="50" height="50" relative="1" as="geometry">
            <mxPoint x="480" y="708" as="sourcePoint" />
            <mxPoint x="360" y="600" as="targetPoint" />
          </mxGeometry>
        </mxCell>
        <mxCell id="dyP7tvdcnq1FMwtRlL3u-25" value="&amp;lt;&amp;lt; extend &amp;gt;&amp;gt;&lt;br&gt;Bedingung: Polier klickt auf Ergänzen" style="text;html=1;align=center;verticalAlign=middle;whiteSpace=wrap;rounded=0;" vertex="1" parent="dyP7tvdcnq1FMwtRlL3u-3">
          <mxGeometry x="190" y="590" width="170" height="30" as="geometry" />
        </mxCell>
        <mxCell id="dyP7tvdcnq1FMwtRlL3u-37" value="&amp;lt;&amp;lt;include&amp;gt;&amp;gt;" style="text;html=1;align=center;verticalAlign=middle;whiteSpace=wrap;rounded=0;" vertex="1" parent="dyP7tvdcnq1FMwtRlL3u-3">
          <mxGeometry x="290" y="190" width="60" height="30" as="geometry" />
        </mxCell>
        <mxCell id="dyP7tvdcnq1FMwtRlL3u-38" value="&amp;lt;&amp;lt;include&amp;gt;&amp;gt;" style="text;html=1;align=center;verticalAlign=middle;whiteSpace=wrap;rounded=0;" vertex="1" parent="dyP7tvdcnq1FMwtRlL3u-3">
          <mxGeometry x="280" y="310" width="60" height="30" as="geometry" />
        </mxCell>
        <mxCell id="dyP7tvdcnq1FMwtRlL3u-39" value="" style="endArrow=none;dashed=1;html=1;rounded=0;exitX=0.5;exitY=1;exitDx=0;exitDy=0;entryX=0.5;entryY=0;entryDx=0;entryDy=0;" edge="1" parent="dyP7tvdcnq1FMwtRlL3u-3" source="dyP7tvdcnq1FMwtRlL3u-12" target="dyP7tvdcnq1FMwtRlL3u-32">
          <mxGeometry width="50" height="50" relative="1" as="geometry">
            <mxPoint x="233" y="209" as="sourcePoint" />
            <mxPoint x="425" y="274" as="targetPoint" />
          </mxGeometry>
        </mxCell>
        <mxCell id="dyP7tvdcnq1FMwtRlL3u-40" value="&amp;lt;&amp;lt;include&amp;gt;&amp;gt;" style="text;html=1;align=center;verticalAlign=middle;whiteSpace=wrap;rounded=0;" vertex="1" parent="dyP7tvdcnq1FMwtRlL3u-3">
          <mxGeometry x="430" y="360" width="60" height="30" as="geometry" />
        </mxCell>
        <mxCell id="dyP7tvdcnq1FMwtRlL3u-15" value="Büroangestellter" style="shape=umlActor;verticalLabelPosition=bottom;verticalAlign=top;html=1;outlineConnect=0;" vertex="1" parent="1">
          <mxGeometry x="80" y="350" width="30" height="60" as="geometry" />
        </mxCell>
        <mxCell id="dyP7tvdcnq1FMwtRlL3u-17" value="Polier" style="shape=umlActor;verticalLabelPosition=bottom;verticalAlign=top;html=1;outlineConnect=0;" vertex="1" parent="1">
          <mxGeometry x="80" y="510" width="30" height="60" as="geometry" />
        </mxCell>
        <mxCell id="dyP7tvdcnq1FMwtRlL3u-18" value="" style="endArrow=none;html=1;rounded=0;exitX=1;exitY=0.3333333333333333;exitDx=0;exitDy=0;exitPerimeter=0;entryX=0;entryY=0.5;entryDx=0;entryDy=0;" edge="1" parent="1" source="dyP7tvdcnq1FMwtRlL3u-1" target="dyP7tvdcnq1FMwtRlL3u-5">
          <mxGeometry width="50" height="50" relative="1" as="geometry">
            <mxPoint x="460" y="360" as="sourcePoint" />
            <mxPoint x="510" y="310" as="targetPoint" />
          </mxGeometry>
        </mxCell>
        <mxCell id="dyP7tvdcnq1FMwtRlL3u-19" value="" style="endArrow=none;html=1;rounded=0;exitX=1;exitY=0.3333333333333333;exitDx=0;exitDy=0;exitPerimeter=0;entryX=0;entryY=0.5;entryDx=0;entryDy=0;" edge="1" parent="1" source="dyP7tvdcnq1FMwtRlL3u-15" target="dyP7tvdcnq1FMwtRlL3u-7">
          <mxGeometry width="50" height="50" relative="1" as="geometry">
            <mxPoint x="120" y="220" as="sourcePoint" />
            <mxPoint x="370" y="150" as="targetPoint" />
          </mxGeometry>
        </mxCell>
        <mxCell id="dyP7tvdcnq1FMwtRlL3u-20" value="" style="endArrow=none;html=1;rounded=0;entryX=0;entryY=0.5;entryDx=0;entryDy=0;" edge="1" parent="1" target="dyP7tvdcnq1FMwtRlL3u-8">
          <mxGeometry width="50" height="50" relative="1" as="geometry">
            <mxPoint x="110" y="370" as="sourcePoint" />
            <mxPoint x="240" y="240" as="targetPoint" />
          </mxGeometry>
        </mxCell>
        <mxCell id="dyP7tvdcnq1FMwtRlL3u-22" value="" style="endArrow=none;html=1;rounded=0;entryX=0;entryY=0.5;entryDx=0;entryDy=0;exitX=1;exitY=0.3333333333333333;exitDx=0;exitDy=0;exitPerimeter=0;" edge="1" parent="1" source="dyP7tvdcnq1FMwtRlL3u-15" target="dyP7tvdcnq1FMwtRlL3u-10">
          <mxGeometry width="50" height="50" relative="1" as="geometry">
            <mxPoint x="120" y="380" as="sourcePoint" />
            <mxPoint x="285" y="360" as="targetPoint" />
          </mxGeometry>
        </mxCell>
        <mxCell id="dyP7tvdcnq1FMwtRlL3u-23" value="" style="endArrow=none;html=1;rounded=0;entryX=0;entryY=0.5;entryDx=0;entryDy=0;exitX=1;exitY=0.3333333333333333;exitDx=0;exitDy=0;exitPerimeter=0;" edge="1" parent="1" source="dyP7tvdcnq1FMwtRlL3u-17" target="dyP7tvdcnq1FMwtRlL3u-10">
          <mxGeometry width="50" height="50" relative="1" as="geometry">
            <mxPoint x="120" y="380" as="sourcePoint" />
            <mxPoint x="280" y="500" as="targetPoint" />
          </mxGeometry>
        </mxCell>
      </root>
    </mxGraphModel>
  </diagram>
</mxfile>
